<svg id="Layer_1" data-name="Layer 1" xmlns="http://www.w3.org/2000/svg" viewBox="0 0 510.8 281.5">
  <title>DrupalBaltics_logo</title>
  <g>
    <path d="M510.8,0H0V192.6H352v88.9H510.4V192.6h.4ZM189.6,189.6H3V3H189.6Zm3,0V3H507.9V189.6H192.5Zm314.9,88.9H354.9v-86H507.5Z" style="fill: #fff"/>
    <path d="M96.9,165.2c32,0,59.8-23.2,59.8-58.4s-26-51.1-30.3-53.8c-7-4.4-13.7-6.1-20.3-10.5-4.1-2.8-9.8-9.4-14.6-15.1-.9,9.2-3.7,12.9-6.9,15.5-6.8,5.3-11,6.9-16.9,10.1S36.1,71.4,36.1,105.7,64.9,165.2,96.9,165.2Zm30.2-12.5a28.6,28.6,0,0,1-14,5.6c-7.2.7-16.9,1.1-22.7-4.2a1.9,1.9,0,0,1,0-2.8,3.1,3.1,0,0,1,2-.9c.8,0,.7,0,1.1.3,2.7,2.1,6.6,3.9,15.1,3.9s14.5-2.4,17.1-4.4,1.7-.1,1.9.4A2.1,2.1,0,0,1,127.1,152.7Zm-23.2-12.1a24.2,24.2,0,0,1,6.1-4.4c2.2-.9,3.5-.8,5.6-.8s4.4.1,6,1.2,2.5,3.5,3,4.8a1.9,1.9,0,0,1-1.1,2.7c-.9.5-1.1.3-2-1.5s-1.7-3.5-6.4-3.5-6.1,1.6-8.4,3.5-3,2.5-3.9,1.5S102.4,142,103.9,140.6ZM84.3,106.2c15.5-.1,26.3,15.4,34.1,15.3s19.4-13.1,25.6-13.1,8.5,6.9,8.5,11-1.3,11.5-4.5,16.2-5.2,6.4-8.9,6.1-14.3-15.3-20.5-15.5c-7.7-.3-24.4,16.1-37.6,16.1-8,0-10.4-1.2-13-2.9s-6-7-5.9-12.9C62.4,116,72,106.4,84.3,106.2Z" style="fill: #fff"/>
    <path d="M244.5,47.6a8.3,8.3,0,0,0-2.4-2.5,10.1,10.1,0,0,0-2.9-1.3,14.1,14.1,0,0,0-3.1-.5h-9.6V84.4h9.6a13.7,13.7,0,0,0,3.1-.5,10.1,10.1,0,0,0,2.9-1.3,8.3,8.3,0,0,0,2.4-2.5,13.7,13.7,0,0,0,1.6-4.1,26.7,26.7,0,0,0,.6-6.1v-12a26.5,26.5,0,0,0-.6-6.1A13.9,13.9,0,0,0,244.5,47.6Zm-4.4,22.7a39.4,39.4,0,0,1-.2,4.8,8,8,0,0,1-.9,3,3.5,3.5,0,0,1-1.7,1.5,7.7,7.7,0,0,1-2.8.4h-1.6V47.7h1.6a7.7,7.7,0,0,1,2.8.4,3.5,3.5,0,0,1,1.7,1.5,8,8,0,0,1,.9,3,39.4,39.4,0,0,1,.2,4.8Z" style="fill: #fff"/>
    <path d="M270.5,63.6a18.6,18.6,0,0,0,1.4-7.7v-1a16.5,16.5,0,0,0-.6-4.8,10.2,10.2,0,0,0-1.6-3.3,7.9,7.9,0,0,0-2.3-2.1,11,11,0,0,0-2.7-1.1l-2.8-.5h-9.4V84.4h6.1V69H261l5.5,15.5h6.6l-6.6-16.5A8.5,8.5,0,0,0,270.5,63.6Zm-4.9-6.5a16.4,16.4,0,0,1-.3,3.5,5.4,5.4,0,0,1-1,2.3,3.8,3.8,0,0,1-1.8,1.2,9.2,9.2,0,0,1-2.8.4h-.9V47.7h.9a9.5,9.5,0,0,1,2.9.4,4.1,4.1,0,0,1,1.8,1.1,4.3,4.3,0,0,1,1,1.9,11.5,11.5,0,0,1,.3,2.8Z" style="fill: #fff"/>
    <path d="M279.6,80.5a7.9,7.9,0,0,0,1.8,2.3,8,8,0,0,0,4.3,1.9h4a8.4,8.4,0,0,0,2.2-.6,8.3,8.3,0,0,0,2.1-1.3,7.8,7.8,0,0,0,1.8-2.3,13.8,13.8,0,0,0,1.3-3.6,24.1,24.1,0,0,0,.5-5.2V43.1h-6.2V73.4a18.7,18.7,0,0,1-.2,3.2,6.2,6.2,0,0,1-.7,2,2.6,2.6,0,0,1-1.1,1.1,3.7,3.7,0,0,1-1.6.3,3.6,3.6,0,0,1-1.6-.3,2.5,2.5,0,0,1-1.1-1.1,6.1,6.1,0,0,1-.6-2,22.2,22.2,0,0,1-.2-3.2V43.1h-6.3V71.7a24.4,24.4,0,0,0,.5,5.2A13.4,13.4,0,0,0,279.6,80.5Z" style="fill: #fff"/>
    <path d="M321.1,67a14.6,14.6,0,0,0,1.5-4,24.5,24.5,0,0,0,.6-5.7V55.9a18.8,18.8,0,0,0-.6-5.2,11.6,11.6,0,0,0-1.6-3.5,8.2,8.2,0,0,0-2.3-2.2,10.5,10.5,0,0,0-2.7-1.2l-2.8-.5h-8.9V84.4h6.3V71.8h.6l2.6-.2a11.5,11.5,0,0,0,2.7-.7,9.6,9.6,0,0,0,2.6-1.5A9,9,0,0,0,321.1,67Zm-4.4-8.5a22.6,22.6,0,0,1-.3,4,7.3,7.3,0,0,1-1,2.7,4.1,4.1,0,0,1-1.9,1.5,7.2,7.2,0,0,1-2.9.5h-.3V47.7h.3a8.7,8.7,0,0,1,2.9.4,4,4,0,0,1,1.9,1.3,5.1,5.1,0,0,1,1,2.2,16.6,16.6,0,0,1,.3,3.2Z" style="fill: #fff"/>
    <path d="M332.3,77h7.6l1.1,7.4h6.3l-7.6-41.3h-7.2l-7.6,41.3h6.4ZM336,51.7h.3l2.9,20.6H333Z" style="fill: #fff"/>
    <polygon points="367.2 79.5 358.6 79.5 358.6 43.1 352.4 43.1 352.4 84.4 367.2 84.4 367.2 79.5" style="fill: #fff"/>
    <path d="M384.1,75.2a8,8,0,0,1-.3,2.1,4.7,4.7,0,0,1-.7,1.5,2.7,2.7,0,0,1-1,.9L381,80a3.6,3.6,0,0,1-1.6-.3,2.4,2.4,0,0,1-1.1-1.1,6.4,6.4,0,0,1-.6-2.1,23.8,23.8,0,0,1-.2-3.2V54.5a20,20,0,0,1,.2-3.3,7.2,7.2,0,0,1,.7-2.1,2.6,2.6,0,0,1,1.1-1.1,3.3,3.3,0,0,1,1.5-.3,2.4,2.4,0,0,1,2.2,1.7,13.2,13.2,0,0,1,.8,5.1v2.1h5.1q.3-1.4.4-2.5a21,21,0,0,0,.1-2.5,13.2,13.2,0,0,0-.4-3.4,7.2,7.2,0,0,0-1.4-2.8,6.8,6.8,0,0,0-2.7-1.9,10.8,10.8,0,0,0-4.1-.7h-2a8.4,8.4,0,0,0-2.2.6,7.9,7.9,0,0,0-4,3.8,14.8,14.8,0,0,0-1.3,3.7,25.4,25.4,0,0,0-.5,5.3V71a26.3,26.3,0,0,0,.5,5.3,15,15,0,0,0,1.3,3.8,8.6,8.6,0,0,0,1.8,2.5,8.3,8.3,0,0,0,4.4,2.1l2.1.2a8.7,8.7,0,0,0,6.5-2.4q2.3-2.4,2.3-7.4V71.2h-5.7Z" style="fill: #fff"/>
    <path d="M408,43.1h-7.2l-7.6,41.3h6.4l1.1-7.4h7.6l1.1,7.4h6.3Zm-6.7,29.2,2.9-20.6h.3l2.9,20.6Z" style="fill: #fff"/>
    <path d="M426.5,70.7q0-3.1-.1-6.1t-.2-5.3q-.1-2.4-.2-4.3c-.1-1.2-.2-2.2-.2-3h.5l6.3,27h4l6.2-27h.5c-.1.7-.1,1.7-.2,3s-.2,2.7-.2,4.3-.1,3.4-.2,5.3-.1,4-.1,6.1V84.4h5.9V43.1h-8l-4.1,16q-.6,2.7-1,5.1l-.7,4.5h-.2l-.7-4.5q-.4-2.4-1-5.1l-4-16h-8.2V84.4h5.9Z" style="fill: #fff"/>
    <path d="M472,47.2a8.2,8.2,0,0,0-2.3-2.2,10.5,10.5,0,0,0-2.7-1.2l-2.8-.5h-8.9V84.4h6.3V71.8h.6l2.6-.2a11.5,11.5,0,0,0,2.7-.7,9.6,9.6,0,0,0,2.6-1.5,9,9,0,0,0,2.2-2.6,14.6,14.6,0,0,0,1.5-4,24.5,24.5,0,0,0,.6-5.7V55.9a18.8,18.8,0,0,0-.6-5.2A11.6,11.6,0,0,0,472,47.2Zm-4.2,11.3a22.6,22.6,0,0,1-.3,4,7.3,7.3,0,0,1-1,2.7,4.1,4.1,0,0,1-1.9,1.5,7.2,7.2,0,0,1-2.9.5h-.3V47.7h.3a8.7,8.7,0,0,1,2.9.4,4,4,0,0,1,1.9,1.3,5.1,5.1,0,0,1,1,2.2,16.6,16.6,0,0,1,.3,3.2Z" style="fill: #fff"/>
    <path d="M240.3,129.8v-.2a5.9,5.9,0,0,0,2-.9,7.6,7.6,0,0,0,1.8-1.7,9,9,0,0,0,1.2-2.4,9.3,9.3,0,0,0,.5-3v-2a10.7,10.7,0,0,0-.6-3.7,7.7,7.7,0,0,0-1.5-2.6,7.3,7.3,0,0,0-2.2-1.7,12.3,12.3,0,0,0-2.7-.9l-2.9-.4h-9.2v41.3h6.6l3.4-.2a17,17,0,0,0,3.1-.6,10.9,10.9,0,0,0,2.7-1.2,7.7,7.7,0,0,0,2.1-1.9,8.8,8.8,0,0,0,1.4-2.8,13.7,13.7,0,0,0,.5-3.9v-2.1a10.8,10.8,0,0,0-1.6-6A6.7,6.7,0,0,0,240.3,129.8Zm-7.6-15.1h1.2a7.6,7.6,0,0,1,2.6.4,4.2,4.2,0,0,1,1.7,1.2,4.7,4.7,0,0,1,1,1.9,10.2,10.2,0,0,1,.3,2.6v1.7a6.9,6.9,0,0,1-.4,2.5,4.1,4.1,0,0,1-1.1,1.7,4.7,4.7,0,0,1-1.8.9,8.3,8.3,0,0,1-2.3.3h-1.2Zm7.4,26.8a7.2,7.2,0,0,1-.4,2.5,4.6,4.6,0,0,1-1.1,1.8,4.6,4.6,0,0,1-1.8,1,7.5,7.5,0,0,1-2.3.3h-1.8V132.3h1.8a7.5,7.5,0,0,1,2.6.4,4.2,4.2,0,0,1,1.7,1.2,4.5,4.5,0,0,1,1,1.9,10.3,10.3,0,0,1,.3,2.6Z" style="fill: #fff"/>
    <path d="M257.6,110.1,250,151.5h6.4l1.1-7.4H265l1.1,7.4h6.3l-7.6-41.3Zm.6,29.2,2.9-20.6h.3l2.9,20.6Z" style="fill: #fff"/>
    <polygon points="283.7 110.1 277.4 110.1 277.4 151.5 292.3 151.5 292.3 146.5 283.7 146.5 283.7 110.1" style="fill: #fff"/>
    <polygon points="292.5 115.1 299.2 115.1 299.2 151.5 305.5 151.5 305.5 115.1 312.1 115.1 312.1 110.1 292.5 110.1 292.5 115.1" style="fill: #fff"/>
    <rect x="317.2" y="110.1" width="6.3" height="41.34" style="fill: #fff"/>
    <path d="M342.7,142.3a8,8,0,0,1-.3,2.1,4.7,4.7,0,0,1-.7,1.5,2.7,2.7,0,0,1-1,.9l-1.2.3a3.6,3.6,0,0,1-1.6-.3,2.4,2.4,0,0,1-1.1-1.1,6.4,6.4,0,0,1-.6-2.1,23.8,23.8,0,0,1-.2-3.2V121.5a20,20,0,0,1,.2-3.3,7.2,7.2,0,0,1,.7-2.1,2.6,2.6,0,0,1,1.1-1.1,3.3,3.3,0,0,1,1.5-.3,2.4,2.4,0,0,1,2.2,1.7,13.2,13.2,0,0,1,.8,5.1v2.1h5.1q.3-1.4.4-2.5a21,21,0,0,0,.1-2.5,13.2,13.2,0,0,0-.4-3.4,7.2,7.2,0,0,0-1.4-2.8,6.8,6.8,0,0,0-2.7-1.9,10.8,10.8,0,0,0-4.1-.7h-2a8.4,8.4,0,0,0-2.2.6,7.9,7.9,0,0,0-4,3.8,14.8,14.8,0,0,0-1.3,3.7,25.4,25.4,0,0,0-.5,5.3V138a26.3,26.3,0,0,0,.5,5.3,15,15,0,0,0,1.3,3.8,8.6,8.6,0,0,0,1.8,2.5,8.3,8.3,0,0,0,4.4,2.1l2.1.2a8.7,8.7,0,0,0,6.5-2.4q2.3-2.4,2.3-7.4v-3.8h-5.7Z" style="fill: #fff"/>
    <path d="M368.5,132.3l-7.3-8.8-.8-1.2-.6-1.1a6.2,6.2,0,0,1-.4-1.3,8.5,8.5,0,0,1-.1-1.6,3.8,3.8,0,0,1,.9-2.6,3.3,3.3,0,0,1,2.6-1,3.2,3.2,0,0,1,3.1,1.8,10.9,10.9,0,0,1,.9,5v2h4.8l.5-2.5a13.6,13.6,0,0,0,.2-2.5,11.3,11.3,0,0,0-.4-3.1,7.3,7.3,0,0,0-1.5-2.8,7.8,7.8,0,0,0-2.9-2,11.7,11.7,0,0,0-4.6-.8,11.1,11.1,0,0,0-4,.7,8.3,8.3,0,0,0-3,1.9,8.4,8.4,0,0,0-1.9,3,10.7,10.7,0,0,0-.6,3.8,12.4,12.4,0,0,0,.9,4.8,19.4,19.4,0,0,0,2.7,4.5l6.5,7.8,1.4,2a10.9,10.9,0,0,1,.9,1.7,7.4,7.4,0,0,1,.5,1.6,11,11,0,0,1,.1,1.8,4,4,0,0,1-.9,2.9,3.6,3.6,0,0,1-2.7,1,3.8,3.8,0,0,1-1.9-.4,3.2,3.2,0,0,1-1.3-1.3,6.9,6.9,0,0,1-.7-2.2,18.9,18.9,0,0,1-.2-3v-2h-4.9q-.3,1.3-.5,2.4a17.7,17.7,0,0,0-.2,2.5,11.7,11.7,0,0,0,.4,3.2,7.1,7.1,0,0,0,1.5,2.8,7.8,7.8,0,0,0,3,2,12.5,12.5,0,0,0,4.7.7,11.8,11.8,0,0,0,4.1-.7,8.7,8.7,0,0,0,3.1-1.9,8.3,8.3,0,0,0,2-3,10.8,10.8,0,0,0,.7-4,12.2,12.2,0,0,0-1.1-5A25.3,25.3,0,0,0,368.5,132.3Z" style="fill: #fff"/>
    <polygon points="423.4 110.2 423.4 110.2 423.4 110.1 418.7 110.1 409.3 119.9 412 123.1 417.2 118.6 417.2 146.8 412.4 146.8 412.4 151.5 428.2 151.5 428.2 146.8 423.4 146.8 423.4 110.2" style="fill: #fff"/>
    <path d="M449.8,112.5a7.7,7.7,0,0,0-3.3-2.1,14.3,14.3,0,0,0-4.5-.6,12.2,12.2,0,0,0-4.1.6,7.4,7.4,0,0,0-3.1,2,9.5,9.5,0,0,0-2,3.7,19.6,19.6,0,0,0-.7,5.6v4a14.4,14.4,0,0,0,.7,5,8.4,8.4,0,0,0,1.9,3.1,6.5,6.5,0,0,0,2.6,1.6,9.8,9.8,0,0,0,2.9.4,7.9,7.9,0,0,0,3.4-.7,7.5,7.5,0,0,0,2.4-1.7v7.6a7.7,7.7,0,0,1-1.1,4.5,3.5,3.5,0,0,1-3,1.4l-1.8-.3a2.5,2.5,0,0,1-1.3-.9,4.8,4.8,0,0,1-.7-1.9,15.9,15.9,0,0,1-.2-3.1v-.9h-4.8a12.4,12.4,0,0,0-.5,2,12.2,12.2,0,0,0-.2,1.9,8.5,8.5,0,0,0,.5,3,6.5,6.5,0,0,0,1.7,2.5,8.2,8.2,0,0,0,3,1.7,13.3,13.3,0,0,0,4.4.6h2.1a9.5,9.5,0,0,0,2.3-.6,8.9,8.9,0,0,0,2.2-1.2,7.7,7.7,0,0,0,1.9-2.2,12.3,12.3,0,0,0,1.4-3.4,20.3,20.3,0,0,0,.5-4.9V122.2a21.2,21.2,0,0,0-.7-5.8A9.4,9.4,0,0,0,449.8,112.5ZM446.2,129l-.7.8-.9.7-1.1.5-1.2.2-1.5-.3a2.7,2.7,0,0,1-1.2-.9,4.4,4.4,0,0,1-.8-1.6,10.1,10.1,0,0,1-.3-2.5v-6.3a7.4,7.4,0,0,1,.9-4,3,3,0,0,1,2.7-1.3,5.7,5.7,0,0,1,1.8.3,2.8,2.8,0,0,1,1.3.9,3.9,3.9,0,0,1,.7,1.6,10.1,10.1,0,0,1,.2,2.4Z" style="fill: #fff"/>
    <rect x="391.1" y="111.9" width="4.9" height="20.41" style="fill: #fff"/>
    <path d="M395.1,240.9h2.3l5.5,15.5h6.6l-6.6-16.5a8.5,8.5,0,0,0,4-4.3,18.6,18.6,0,0,0,1.4-7.7v-1a16.5,16.5,0,0,0-.6-4.8,10.2,10.2,0,0,0-1.6-3.3,7.9,7.9,0,0,0-2.3-2.1,11,11,0,0,0-2.7-1.1l-2.8-.5H389v41.3h6.1Zm0-21.3h.9a9.5,9.5,0,0,1,2.9.4,4.1,4.1,0,0,1,1.8,1.1,4.3,4.3,0,0,1,1,1.9,11.5,11.5,0,0,1,.3,2.8V229a16.4,16.4,0,0,1-.3,3.5,5.4,5.4,0,0,1-1,2.3,3.8,3.8,0,0,1-1.8,1.2,9.2,9.2,0,0,1-2.8.4h-.9Z" style="fill: #fff"/>
    <rect x="415" y="215" width="6.3" height="41.34" style="fill: #fff"/>
    <path d="M429.2,252a8.9,8.9,0,0,0,1.8,2.5,8.5,8.5,0,0,0,2,1.4,7,7,0,0,0,2,.7l1.7.2a6.5,6.5,0,0,0,3.6-1,8.5,8.5,0,0,0,2.7-3.3l.7,3.9h4.2V235.4h-9.3v4.1h3.2v5.4a15.8,15.8,0,0,1-.2,2.8,7.9,7.9,0,0,1-.7,2.2,4.1,4.1,0,0,1-1.2,1.5,3,3,0,0,1-1.8.5,4.1,4.1,0,0,1-1.7-.3,2.7,2.7,0,0,1-1.2-1.1,6,6,0,0,1-.7-2.1,18.8,18.8,0,0,1-.2-3.2V226.5a20,20,0,0,1,.2-3.3,6.3,6.3,0,0,1,.7-2.1,2.8,2.8,0,0,1,1.2-1.1,4,4,0,0,1,1.7-.3q3.7,0,3.7,6.8v2h5q.3-1.4.4-2.5a17.7,17.7,0,0,0,.2-2.5,12,12,0,0,0-.5-3.4,7.2,7.2,0,0,0-1.5-2.8,7.4,7.4,0,0,0-2.8-1.9,11.5,11.5,0,0,0-4.2-.7h-2.2a9.4,9.4,0,0,0-2.3.6,8.7,8.7,0,0,0-2.3,1.4,8.3,8.3,0,0,0-1.9,2.4,14.1,14.1,0,0,0-1.4,3.7,24.2,24.2,0,0,0-.5,5.3v14.6a25.5,25.5,0,0,0,.5,5.3A15.6,15.6,0,0,0,429.2,252Z" style="fill: #fff"/>
    <path d="M459.7,248.9h7.6l1.1,7.4h6.3L467.1,215h-7.2l-7.6,41.3h6.4Zm3.7-25.3h.3l2.9,20.6h-6.1Z" style="fill: #fff"/>
  </g>
</svg>
